<?xml version="1.0" encoding="UTF-8"?>
<svg id="Layer_1" data-name="Layer 1" xmlns="http://www.w3.org/2000/svg" viewBox="0 0 1080 1080">
  <defs>
    <style>
      .cls-1 {
        fill: #e2e2e2;
      }

      .cls-2 {
        fill: #50181c;
      }

      .cls-3 {
        fill: #be1313;
      }

      .cls-4 {
        fill: #921f22;
      }
    </style>
  </defs>
  <rect class="cls-1" x="-80.44" y="-41.92" width="1427.27" height="1185.01"/>
  <g>
    <path class="cls-4" d="M404.28,908.29c-80.53-32.73-130.58-98.11-157.2-179.59-13.48-41.27-20.43-83.55-22.1-126.86,48.68,67.73,104.24,122.65,184.14,147.02,62.5,17.83,140.04,20.83,200.58-2.57,34.74-13.43,59.77-39.88,70.96-75.58,7.8-24.89,11.11-49.96,11.09-76.79-.06-72.3.13-143.25,3.95-215.56,13.37,11.16,22.58,23.41,31.53,37.58,32.68,51.75,57.22,108.37,71.23,168.28,13.42,57.37,14.14,115.96-1.68,172.37-35.87,127.83-145.83,175.06-271.56,174.51-41.91-.18-82.33-7.11-120.94-22.8Z"/>
    <path class="cls-3" d="M394.6,653.7c4.4,19.24,12.2,34.84,23.28,51.69-38.63-17-73.96-37.46-105.94-63.28-57.61-46.51-89.42-114.68-88.82-188.81l1.65-78.67.02-144.7c43.93-.25,85.54,16.09,117.3,46.43,26.63,25.45,41.52,58.51,42.85,95.77l.06,195.63c0,29.4,2.78,56.96,9.59,85.94Z"/>
    <path class="cls-2" d="M848.55,662.87c-6.26-111.91-29.57-208.25-103.98-296.36-12.74-15.09-26.69-27.16-42.12-39.39-6.16-4.88-10.12-13.2-10.17-21.49l-.83-156.73c43.84-.02,85.9,16.69,118.06,46.4,28.26,26.11,43.25,60.94,47.24,99.65.59,105.05-.66,209-4.04,314l-4.16,53.92Z"/>
  </g>
</svg>