<?xml version="1.0" encoding="UTF-8"?>
<svg id="Layer_1" data-name="Layer 1" xmlns="http://www.w3.org/2000/svg" viewBox="0 0 1080 1080">
  <defs>
    <style>
      .cls-1 {
        fill: #50181c;
      }

      .cls-2 {
        fill: #be1414;
      }

      .cls-3 {
        fill: #be1313;
      }

      .cls-4 {
        fill: #921f22;
      }
    </style>
  </defs>
  <g>
    <path class="cls-4" d="M426.69,459.81h23.35v1.87c0,4.24-.5,8-1.5,11.27-.98,3.02-2.62,5.85-4.94,8.49-5.25,5.9-11.92,8.86-20.02,8.86s-14.67-2.85-20.31-8.56c-5.64-5.73-8.45-12.61-8.45-20.64s2.87-15.15,8.6-20.86c5.73-5.73,12.71-8.6,20.93-8.6,4.42,0,8.54.9,12.37,2.71,3.66,1.81,7.26,4.73,10.79,8.78l-6.07,5.82c-4.64-6.17-10.28-9.26-16.94-9.26-5.98,0-10.99,2.06-15.04,6.18-4.05,4.05-6.07,9.12-6.07,15.22s2.26,11.48,6.77,15.55c4.22,3.78,8.79,5.67,13.72,5.67,4.2,0,7.96-1.41,11.31-4.24,3.34-2.85,5.21-6.27,5.6-10.25h-14.09v-8.01Z"/>
    <path class="cls-4" d="M566.16,465.15l17.49,24.08h-10.43l-16.14-23.13h-1.54v23.13h-8.53v-56.5h9.99c7.47,0,12.86,1.4,16.17,4.21,3.66,3.12,5.49,7.25,5.49,12.37,0,4-1.15,7.44-3.44,10.32-2.29,2.88-5.32,4.72-9.08,5.53ZM555.55,458.67h2.71c8.07,0,12.11-3.09,12.11-9.26,0-5.78-3.93-8.67-11.78-8.67h-3.04v17.93Z"/>
    <path class="cls-4" d="M686.08,432.73v34.03c0,4.85.79,8.4,2.38,10.65,2.37,3.24,5.7,4.87,9.99,4.87s7.66-1.62,10.03-4.87c1.59-2.17,2.38-5.72,2.38-10.65v-34.03h8.53v36.37c0,5.95-1.85,10.86-5.56,14.71-4.17,4.29-9.29,6.44-15.37,6.44s-11.19-2.15-15.33-6.44c-3.71-3.85-5.56-8.76-5.56-14.71v-36.37h8.53Z"/>
    <path class="cls-4" d="M827.71,466.28v22.94h-8.53v-56.5h9.66c4.73,0,8.31.33,10.72.99,2.44.66,4.59,1.9,6.44,3.73,3.24,3.17,4.87,7.17,4.87,12,0,5.17-1.73,9.27-5.2,12.3-3.46,3.02-8.14,4.54-14.01,4.54h-3.95ZM827.71,458.38h3.18c7.83,0,11.75-3.01,11.75-9.04s-4.04-8.75-12.11-8.75h-2.82v17.78Z"/>
    <path class="cls-4" d="M943.09,460.72c0-7.95,2.91-14.78,8.75-20.49,5.81-5.71,12.78-8.56,20.93-8.56s14.95,2.88,20.71,8.64c5.78,5.76,8.67,12.67,8.67,20.75s-2.9,15.02-8.71,20.67c-5.83,5.68-12.87,8.53-21.11,8.53-7.29,0-13.84-2.52-19.65-7.57-6.39-5.59-9.59-12.9-9.59-21.96ZM951.69,460.83c0,6.25,2.1,11.38,6.29,15.41,4.17,4.02,8.99,6.04,14.45,6.04,5.93,0,10.93-2.05,15-6.15,4.07-4.15,6.11-9.2,6.11-15.15s-2.01-11.08-6.04-15.15c-4-4.1-8.95-6.15-14.86-6.15s-10.84,2.05-14.89,6.15c-4.05,4.05-6.07,9.05-6.07,15Z"/>
  </g>
  <rect class="cls-1" x="387.33" y="663.28" width="136" height="3.93"/>
  <rect class="cls-1" x="930.98" y="601.27" width="3.94" height="127.94" transform="translate(267.5951 1598.1092) rotate(-89.9931)"/>
  <g>
    <path class="cls-4" d="M148.59,709.63c-37.09-15.07-60.15-45.19-72.4-82.72-6.21-19.01-9.41-38.48-10.18-58.43,22.42,31.19,48.01,56.49,84.81,67.72,28.79,8.21,64.5,9.59,92.39-1.19,16-6.18,27.53-18.37,32.68-34.81,3.59-11.46,5.12-23.01,5.11-35.37-.03-33.3.06-65.98,1.82-99.29,6.16,5.14,10.4,10.78,14.52,17.31,15.05,23.83,26.35,49.91,32.81,77.51,6.18,26.42,6.51,53.41-.78,79.39-16.52,58.88-67.17,80.63-125.08,80.38-19.3-.08-37.92-3.27-55.71-10.5Z"/>
    <path class="cls-3" d="M144.13,592.37c2.03,8.86,5.62,16.05,10.72,23.81-17.79-7.83-34.07-17.25-48.8-29.15-26.54-21.42-41.19-52.82-40.91-86.97l.76-36.23v-66.65c20.25-.11,39.41,7.41,54.04,21.39,12.27,11.72,19.13,26.95,19.74,44.11l.03,90.11c0,13.54,1.28,26.23,4.42,39.58Z"/>
    <path class="cls-1" d="M353.22,596.59c-2.88-51.55-13.62-95.92-47.89-136.5-5.87-6.95-12.29-12.51-19.4-18.14-2.84-2.25-4.66-6.08-4.68-9.9l-.38-72.19c20.19,0,39.57,7.69,54.38,21.37,13.02,12.03,19.92,28.07,21.76,45.9.27,48.39-.31,96.26-1.86,144.63l-1.92,24.83Z"/>
  </g>
  <g>
    <path class="cls-2" d="M470.29,633.68c-7.99,8.05-19.54,12.07-34.65,12.07s-26.66-4.02-34.65-12.07c-7.99-8.05-11.98-20-11.98-35.84v-80.9c0-2.09.74-3.87,2.21-5.34,1.47-1.47,3.19-2.21,5.16-2.21,2.09,0,3.87.74,5.34,2.21s2.21,3.26,2.21,5.34v81.46c0,11.92,2.61,20.7,7.83,26.35,5.22,5.65,13.24,8.48,24.05,8.48s18.86-2.82,24.14-8.48c5.28-5.65,7.92-14.44,7.92-26.35v-81.82c0-2.09.71-3.81,2.12-5.16,1.41-1.35,3.1-2.03,5.07-2.03s3.65.68,5.07,2.03c1.41,1.35,2.12,3.07,2.12,5.16v81.27c0,15.85-3.99,27.8-11.98,35.84Z"/>
    <path class="cls-2" d="M533.78,641.88c-1.41,1.35-3.1,2.03-5.07,2.03s-3.66-.67-5.07-2.03c-1.41-1.35-2.12-3.07-2.12-5.16v-119.79c0-2.09.74-3.87,2.21-5.34,1.47-1.47,3.25-2.21,5.34-2.21,5.04,0,8.85,2.21,11.43,6.63l61.18,103.75c0,.12.12.18.37.18.12,0,.18-.06.18-.18v-103.2c0-2.09.71-3.81,2.12-5.16,1.41-1.35,3.1-2.03,5.07-2.03s3.65.68,5.07,2.03c1.41,1.35,2.12,3.07,2.12,5.16v119.79c0,2.09-.74,3.87-2.21,5.34-1.47,1.47-3.26,2.21-5.34,2.21-5.04,0-8.85-2.21-11.43-6.63l-61.18-103.76c0-.12-.12-.18-.37-.18-.12,0-.18.06-.18.18v103.2c0,2.09-.71,3.81-2.12,5.16Z"/>
    <path class="cls-2" d="M668.21,643.91c-2.83,0-5.28-1.04-7.37-3.13-2.09-2.09-3.13-4.54-3.13-7.37v-116.29c0-2.09.77-3.9,2.3-5.44s3.35-2.3,5.44-2.3,3.9.77,5.44,2.3c1.53,1.54,2.3,3.35,2.3,5.44v112.6c0,1.11.49,1.66,1.47,1.66h57.31c1.72,0,3.19.62,4.42,1.84,1.23,1.23,1.84,2.7,1.84,4.42s-.62,3.2-1.84,4.42-2.7,1.84-4.42,1.84h-63.76Z"/>
    <path class="cls-2" d="M772.7,643.91c-1.84,0-3.32-.77-4.42-2.3-1.11-1.53-1.35-3.16-.74-4.88l42.02-119.6c.86-2.33,2.3-4.21,4.33-5.62,2.03-1.41,4.27-2.12,6.73-2.12s4.7.71,6.73,2.12c2.03,1.41,3.47,3.29,4.33,5.62l41.83,119.42c.61,1.84.37,3.53-.74,5.07-1.11,1.54-2.58,2.3-4.42,2.3-2.46,0-4.64-.71-6.54-2.12-1.91-1.41-3.22-3.23-3.96-5.44l-9.77-30.22c-.37-.98-1.11-1.47-2.21-1.47h-51.05c-.98,0-1.66.49-2.03,1.47l-10.14,30.59c-.74,2.21-2,3.96-3.78,5.25-1.78,1.29-3.84,1.94-6.17,1.94ZM820.06,522.83l-22.48,68.56c-.12.37-.06.71.18,1.01.24.31.55.46.92.46h43.31c.37,0,.65-.15.83-.46.18-.31.28-.65.28-1.01l-22.48-68.56c0-.12-.06-.18-.18-.18-.25,0-.37.06-.37.18Z"/>
    <path class="cls-2" d="M916.35,641.88c-1.41,1.35-3.1,2.03-5.07,2.03s-3.66-.67-5.07-2.03c-1.41-1.35-2.12-3.07-2.12-5.16v-119.79c0-2.09.74-3.87,2.21-5.34,1.47-1.47,3.25-2.21,5.34-2.21,5.04,0,8.85,2.21,11.43,6.63l61.18,103.75c0,.12.12.18.37.18.12,0,.18-.06.18-.18v-103.2c0-2.09.71-3.81,2.12-5.16,1.41-1.35,3.1-2.03,5.07-2.03s3.65.68,5.07,2.03c1.41,1.35,2.12,3.07,2.12,5.16v119.79c0,2.09-.74,3.87-2.21,5.34-1.47,1.47-3.26,2.21-5.34,2.21-5.04,0-8.85-2.21-11.43-6.63l-61.18-103.76c0-.12-.12-.18-.37-.18-.12,0-.18.06-.18.18v103.2c0,2.09-.71,3.81-2.12,5.16Z"/>
  </g>
  <g>
    <path class="cls-1" d="M542.85,658.58h5.93c4.87,0,7.9,3.32,7.9,7.99s-3.03,7.99-7.9,7.99h-5.93v-15.99ZM546.19,661.8v9.55h2.56c2.89,0,4.47-2.05,4.47-4.77s-1.58-4.77-4.47-4.77h-2.56Z"/>
    <path class="cls-1" d="M559.27,658.58h3.34v15.99h-3.34v-15.99Z"/>
    <path class="cls-1" d="M574.35,662.6c-.82-.59-2.23-1.15-3.46-1.15-1.34,0-1.98.61-1.98,1.43,0,.52.42,1.01,1.2,1.46l2.12,1.27c2.07,1.25,2.89,2.63,2.89,4.42,0,2.52-1.67,4.8-5.38,4.8-1.58,0-3.03-.4-4.04-.82v-3.69c.87.68,2.42,1.39,3.9,1.39,1.27,0,1.98-.61,1.98-1.48,0-.54-.38-1.03-1.27-1.55l-2.19-1.29c-2.12-1.22-2.77-2.59-2.77-4.4,0-2.23,1.43-4.66,5.57-4.66,1.2,0,2.45.28,3.43.73v3.55Z"/>
    <path class="cls-1" d="M580.3,661.8h-3.88v-3.22h11.1v3.22h-3.88v12.77h-3.34v-12.77Z"/>
    <path class="cls-1" d="M589.75,658.58h5.53c3.13,0,5.29,1.69,5.29,4.66,0,2.28-1.32,3.6-2.89,4.04,2,1.03,3.2,3.86,3.57,7.29h-3.46c-.56-3.48-1.93-5.95-3.88-5.95h-.82v5.95h-3.34v-15.99ZM595.28,661.8h-2.19v3.6h2.19c1.06,0,1.86-.63,1.86-1.79s-.8-1.81-1.86-1.81Z"/>
    <path class="cls-1" d="M603.7,658.58h3.34v15.99h-3.34v-15.99Z"/>
    <path class="cls-1" d="M610.57,658.58h5.55c2.92,0,4.98,1.72,4.98,4.26,0,1.74-.75,2.89-1.9,3.5,1.41.68,2.35,1.93,2.35,3.81,0,2.63-2.21,4.42-5.29,4.42h-5.69v-15.99ZM616.09,661.8h-2.19v2.96h2.19c.89,0,1.58-.47,1.58-1.48s-.68-1.48-1.58-1.48ZM616.26,667.99h-2.35v3.36h2.35c1.06,0,1.86-.52,1.86-1.67s-.8-1.69-1.86-1.69Z"/>
    <path class="cls-1" d="M636.23,658.58v9.97c0,3.93-2.38,6.28-6.11,6.28s-6.09-2.35-6.09-6.28v-9.97h3.34v10.25c0,1.62,1.06,2.75,2.75,2.75s2.77-1.13,2.77-2.75v-10.25h3.34Z"/>
    <path class="cls-1" d="M642.86,667.66l-5.15-9.08h3.76l3.06,5.78,3.08-5.78h3.74l-5.15,9.12v6.87h-3.34v-6.91Z"/>
    <path class="cls-1" d="M653.02,674.57v-15.99h9.1v3.22h-5.76v3.1h5.29v3.22h-5.29v3.22h5.76v3.22h-9.1Z"/>
    <path class="cls-1" d="M668.64,665.33v9.24h-3.34v-13.99l-1.1-1.76v-.23h3.95l7.01,10.18v-10.18h3.34v15.99h-3.34l-6.51-9.24Z"/>
    <path class="cls-1" d="M682.02,658.58h5.93c4.87,0,7.9,3.32,7.9,7.99s-3.03,7.99-7.9,7.99h-5.93v-15.99ZM685.36,661.8v9.55h2.56c2.89,0,4.47-2.05,4.47-4.77s-1.58-4.77-4.47-4.77h-2.56Z"/>
    <path class="cls-1" d="M705.68,658.32c4.68,0,8.23,3.57,8.23,8.25s-3.55,8.25-8.23,8.25-8.23-3.57-8.23-8.25,3.55-8.25,8.23-8.25ZM705.68,671.49c2.7,0,4.77-2.19,4.77-4.91s-2.07-4.91-4.77-4.91-4.8,2.21-4.8,4.91,2.07,4.91,4.8,4.91Z"/>
    <path class="cls-1" d="M721.66,674.57v-15.99h9.1v3.22h-5.76v3.1h5.29v3.22h-5.29v3.22h5.76v3.22h-9.1Z"/>
    <path class="cls-1" d="M736.07,674.57h-3.95l4.82-8.18-4.58-7.81h3.95l2.89,5.31,2.89-5.31h3.95l-4.56,7.81,4.8,8.18h-3.93l-3.15-5.67-3.13,5.67Z"/>
    <path class="cls-1" d="M758.46,674.01c-1.08.52-2.33.82-3.64.82-4.68,0-8.23-3.57-8.23-8.25s3.55-8.25,8.23-8.25c1.32,0,2.56.31,3.64.82v3.83c-.89-.78-2.16-1.32-3.64-1.32-2.73,0-4.8,2.21-4.8,4.91s2.05,4.91,4.8,4.91c1.48,0,2.8-.54,3.64-1.29v3.81Z"/>
    <path class="cls-1" d="M761.26,674.57v-15.99h9.1v3.22h-5.76v3.1h5.29v3.22h-5.29v3.22h5.76v3.22h-9.1Z"/>
    <path class="cls-1" d="M773.45,674.57v-15.99h3.34v12.77h5.76v3.22h-9.1Z"/>
    <path class="cls-1" d="M784.74,674.57v-15.99h9.1v3.22h-5.76v3.1h5.29v3.22h-5.29v3.22h5.76v3.22h-9.1Z"/>
    <path class="cls-1" d="M800.35,665.33v9.24h-3.34v-13.99l-1.1-1.76v-.23h3.95l7.01,10.18v-10.18h3.34v15.99h-3.34l-6.51-9.24Z"/>
    <path class="cls-1" d="M824.63,674.01c-1.08.52-2.33.82-3.64.82-4.68,0-8.23-3.57-8.23-8.25s3.55-8.25,8.23-8.25c1.32,0,2.56.31,3.64.82v3.83c-.89-.78-2.16-1.32-3.64-1.32-2.73,0-4.8,2.21-4.8,4.91s2.05,4.91,4.8,4.91c1.48,0,2.8-.54,3.64-1.29v3.81Z"/>
    <path class="cls-1" d="M827.43,658.58h3.34v15.99h-3.34v-15.99Z"/>
    <path class="cls-1" d="M843.09,671.16h-5.71l-1.2,3.41h-3.74l5.93-15.99h3.74l5.93,15.99h-3.74l-1.2-3.41ZM838.48,667.94h3.53l-1.76-4.98-1.76,4.98Z"/>
  </g>
</svg>